<svg width="28" height="28" viewBox="0 0 28 28" fill="none" xmlns="http://www.w3.org/2000/svg">
<path d="M4.09992 16.6101C3.82934 16.5549 3.56527 16.7295 3.51008 17.0001C3.4549 17.2707 3.62951 17.5347 3.90008 17.5899L4.09992 16.6101ZM7.41008 21.0999C7.46527 21.3705 7.72934 21.5451 7.99992 21.4899C8.27049 21.4347 8.4451 21.1707 8.38992 20.9001L7.41008 21.0999ZM4.05527 12.5531C3.78082 12.5225 3.53359 12.7203 3.50306 12.9947C3.47254 13.2692 3.67028 13.5164 3.94473 13.5469L4.05527 12.5531ZM11.4531 21.0553C11.4836 21.3297 11.7308 21.5275 12.0053 21.4969C12.2797 21.4664 12.4775 21.2192 12.4469 20.9447L11.4531 21.0553ZM3.5 9C3.5 9.27614 3.72386 9.5 4 9.5C4.27614 9.5 4.5 9.27614 4.5 9H3.5ZM6 5V4.5V5ZM22 5V4.5V5ZM16 20.5C15.7239 20.5 15.5 20.7239 15.5 21C15.5 21.2761 15.7239 21.5 16 21.5V20.5ZM3.90008 17.5899C4.76489 17.7663 5.55873 18.1931 6.18283 18.8172L6.88994 18.1101C6.12715 17.3473 5.1569 16.8257 4.09992 16.6101L3.90008 17.5899ZM6.18283 18.8172C6.80692 19.4413 7.23371 20.2351 7.41008 21.0999L8.38992 20.9001C8.17435 19.8431 7.65272 18.8728 6.88994 18.1101L6.18283 18.8172ZM3.94473 13.5469C5.8627 13.7603 7.65099 14.6199 9.01556 15.9844L9.72267 15.2773C8.19756 13.7522 6.19888 12.7915 4.05527 12.5531L3.94473 13.5469ZM9.01556 15.9844C10.3801 17.349 11.2397 19.1373 11.4531 21.0553L12.4469 20.9447C12.2085 18.8011 11.2478 16.8024 9.72267 15.2773L9.01556 15.9844ZM4.5 9V7H3.5V9H4.5ZM4.5 7C4.5 6.60218 4.65804 6.22064 4.93934 5.93934L4.23223 5.23223C3.76339 5.70107 3.5 6.33696 3.5 7H4.5ZM4.93934 5.93934C5.22064 5.65804 5.60218 5.5 6 5.5V4.5C5.33696 4.5 4.70107 4.76339 4.23223 5.23223L4.93934 5.93934ZM6 5.5H22V4.5H6V5.5ZM22 5.5C22.3978 5.5 22.7794 5.65804 23.0607 5.93934L23.7678 5.23223C23.2989 4.76339 22.663 4.5 22 4.5V5.5ZM23.0607 5.93934C23.342 6.22064 23.5 6.60218 23.5 7H24.5C24.5 6.33696 24.2366 5.70107 23.7678 5.23223L23.0607 5.93934ZM23.5 7V19H24.5V7H23.5ZM23.5 19C23.5 19.3978 23.342 19.7794 23.0607 20.0607L23.7678 20.7678C24.2366 20.2989 24.5 19.663 24.5 19H23.5ZM23.0607 20.0607C22.7794 20.342 22.3978 20.5 22 20.5V21.5C22.663 21.5 23.2989 21.2366 23.7678 20.7678L23.0607 20.0607ZM22 20.5H16V21.5H22V20.5ZM4.5 21C4.5 21.2761 4.27614 21.5 4 21.5V22.5C4.82843 22.5 5.5 21.8284 5.5 21H4.5ZM4 21.5C3.72386 21.5 3.5 21.2761 3.5 21H2.5C2.5 21.8284 3.17157 22.5 4 22.5V21.5ZM3.5 21C3.5 20.7239 3.72386 20.5 4 20.5V19.5C3.17157 19.5 2.5 20.1716 2.5 21H3.5ZM4 20.5C4.27614 20.5 4.5 20.7239 4.5 21H5.5C5.5 20.1716 4.82843 19.5 4 19.5V20.5Z" fill="#121212"/>
</svg>
