<svg width="28" height="28" viewBox="0 0 28 28" fill="none" xmlns="http://www.w3.org/2000/svg">
<path d="M17.8623 6.62496C18.0707 7.99996 19.3207 8.41663 19.9873 9.54163C20.6957 10.6666 20.4457 11.7083 20.529 12.9583C20.6123 14.1666 21.5707 14.9166 21.8207 16.0416C22.029 17.0833 20.9873 17.5833 21.0707 18.5833C21.1123 19.2083 21.4873 20 21.404 20.625C21.3207 21.25 20.779 21.8333 20.404 22.2916M19.8623 5L3.9873 16.875L22.8206 23C22.8623 23 26.904 15.625 19.8623 5ZM16.779 14.625C15.8206 14.7916 14.9456 14.125 14.779 13.1666C14.6123 12.2083 15.279 11.3333 16.2373 11.1666C17.1956 11 18.0706 11.6666 18.2373 12.625C18.404 13.5833 17.7373 14.4583 16.779 14.625ZM17.8623 19.3334C16.9873 19.4584 16.154 18.875 15.9873 18C15.8206 17.125 16.4456 16.2917 17.3623 16.125C18.2373 16 19.0706 16.5834 19.2373 17.4584C19.3623 18.3334 18.779 19.1667 17.8623 19.3334ZM12.404 17.0834C11.5706 17.2084 10.779 16.6667 10.654 15.8334C10.529 15 11.0706 14.2084 11.904 14.0834C12.7373 13.9584 13.529 14.5 13.654 15.3334C13.779 16.1667 13.2373 16.9167 12.404 17.0834Z" stroke="#121212" stroke-miterlimit="10"/>
</svg>
