<svg width="28" height="28" viewBox="0 0 28 28" fill="none" xmlns="http://www.w3.org/2000/svg">
<mask id="path-1-inside-1" fill="white">
<path d="M14 24C19.5228 24 24 19.5228 24 14C24 8.47715 19.5228 4 14 4C8.47715 4 4 8.47715 4 14C4 19.5228 8.47715 24 14 24Z"/>
<path d="M11.09 11C11.3251 10.3317 11.7892 9.76811 12.4 9.40913C13.0108 9.05016 13.7289 8.91894 14.4272 9.03871C15.1255 9.15849 15.7588 9.52152 16.2151 10.0635C16.6713 10.6055 16.9211 11.2915 16.92 12C16.92 14 13.92 15 13.92 15"/>
<path d="M15 19C15 19.5523 14.5523 20 14 20C13.4477 20 13 19.5523 13 19C13 18.4477 13.4477 18 14 18C14.5523 18 15 18.4477 15 19Z"/>
</mask>
<path d="M10.1467 10.6682C9.96339 11.1891 10.2372 11.7601 10.7582 11.9433C11.2791 12.1266 11.8501 11.8528 12.0333 11.3318L10.1467 10.6682ZM16.92 12L15.92 11.9985V12H16.92ZM13.6038 14.0513C13.0798 14.226 12.7967 14.7923 12.9713 15.3162C13.146 15.8402 13.7123 16.1233 14.2362 15.9487L13.6038 14.0513ZM23 14C23 18.9706 18.9706 23 14 23V25C20.0751 25 25 20.0751 25 14H23ZM14 23C9.02944 23 5 18.9706 5 14H3C3 20.0751 7.92487 25 14 25V23ZM5 14C5 9.02944 9.02944 5 14 5V3C7.92487 3 3 7.92487 3 14H5ZM14 5C18.9706 5 23 9.02944 23 14H25C25 7.92487 20.0751 3 14 3V5ZM12.0333 11.3318C12.1901 10.8863 12.4994 10.5106 12.9066 10.2713L11.8933 8.547C11.0789 9.02563 10.4601 9.77705 10.1467 10.6682L12.0333 11.3318ZM12.9066 10.2713C13.3138 10.0319 13.7926 9.94447 14.2581 10.0243L14.5962 8.05311C13.6652 7.89341 12.7077 8.06837 11.8933 8.547L12.9066 10.2713ZM14.2581 10.0243C14.7236 10.1042 15.1459 10.3462 15.4501 10.7075L16.9801 9.41953C16.3718 8.69686 15.5273 8.2128 14.5962 8.05311L14.2581 10.0243ZM15.4501 10.7075C15.7542 11.0689 15.9207 11.5262 15.92 11.9985L17.92 12.0015C17.9214 11.0569 17.5884 10.1422 16.9801 9.41953L15.4501 10.7075ZM15.92 12C15.92 12.4691 15.5549 12.9582 14.8653 13.4179C14.5509 13.6275 14.2294 13.789 13.9826 13.8987C13.8606 13.9529 13.7603 13.9929 13.6929 14.0186C13.6593 14.0314 13.6341 14.0406 13.6187 14.0461C13.611 14.0488 13.6058 14.0506 13.6032 14.0515C13.602 14.0519 13.6014 14.0521 13.6014 14.0521C13.6015 14.0521 13.6017 14.052 13.6021 14.0519C13.6023 14.0518 13.6025 14.0517 13.6028 14.0516C13.6029 14.0516 13.6032 14.0515 13.6032 14.0515C13.6035 14.0514 13.6038 14.0513 13.92 15C14.2362 15.9487 14.2365 15.9486 14.2368 15.9485C14.2369 15.9484 14.2372 15.9483 14.2375 15.9483C14.2379 15.9481 14.2385 15.9479 14.239 15.9478C14.2401 15.9474 14.2414 15.9469 14.2429 15.9464C14.2459 15.9454 14.2496 15.9442 14.254 15.9427C14.2628 15.9396 14.2744 15.9356 14.2887 15.9305C14.3173 15.9203 14.3565 15.9061 14.4049 15.8876C14.5015 15.8508 14.6356 15.7971 14.7949 15.7263C15.1106 15.586 15.5391 15.3725 15.9747 15.0821C16.7851 14.5418 17.92 13.5309 17.92 12H15.92ZM14 19V21C15.1046 21 16 20.1046 16 19H14ZM14 19H12C12 20.1046 12.8954 21 14 21V19ZM14 19V17C12.8954 17 12 17.8954 12 19H14ZM14 19H16C16 17.8954 15.1046 17 14 17V19Z" fill="#121212" mask="url(#path-1-inside-1)"/>
</svg>
