<svg width="28" height="28" viewBox="0 0 28 28" fill="none" xmlns="http://www.w3.org/2000/svg">
<mask id="path-1-inside-1" fill="white">
<path d="M22 4H6C4.89543 4 4 4.89543 4 6V10C4 11.1046 4.89543 12 6 12H22C23.1046 12 24 11.1046 24 10V6C24 4.89543 23.1046 4 22 4Z"/>
<path d="M22 16H6C4.89543 16 4 16.8954 4 18V22C4 23.1046 4.89543 24 6 24H22C23.1046 24 24 23.1046 24 22V18C24 16.8954 23.1046 16 22 16Z"/>
<path d="M9 20C9 20.5523 8.55228 21 8 21C7.44772 21 7 20.5523 7 20C7 19.4477 7.44772 19 8 19C8.55228 19 9 19.4477 9 20Z"/>
<path d="M9 8C9 8.55228 8.55228 9 8 9C7.44772 9 7 8.55228 7 8C7 7.44772 7.44772 7 8 7C8.55228 7 9 7.44772 9 8Z"/>
</mask>
<path d="M6 5H22V3H6V5ZM22 5C22.5523 5 23 5.44771 23 6H25C25 4.34315 23.6569 3 22 3V5ZM23 6V10H25V6H23ZM23 10C23 10.5523 22.5523 11 22 11V13C23.6569 13 25 11.6569 25 10H23ZM22 11H6V13H22V11ZM6 11C5.44772 11 5 10.5523 5 10H3C3 11.6569 4.34315 13 6 13V11ZM5 10V6H3V10H5ZM5 6C5 5.44772 5.44772 5 6 5V3C4.34315 3 3 4.34315 3 6H5ZM6 17H22V15H6V17ZM22 17C22.5523 17 23 17.4477 23 18H25C25 16.3431 23.6569 15 22 15V17ZM23 18V22H25V18H23ZM23 22C23 22.5523 22.5523 23 22 23V25C23.6569 25 25 23.6569 25 22H23ZM22 23H6V25H22V23ZM6 23C5.44772 23 5 22.5523 5 22H3C3 23.6569 4.34315 25 6 25V23ZM5 22V18H3V22H5ZM5 18C5 17.4477 5.44772 17 6 17V15C4.34315 15 3 16.3431 3 18H5ZM8 20V22C9.10457 22 10 21.1046 10 20H8ZM8 20H6C6 21.1046 6.89543 22 8 22V20ZM8 20V18C6.89543 18 6 18.8954 6 20H8ZM8 20H10C10 18.8954 9.10457 18 8 18V20ZM8 8V10C9.10457 10 10 9.10457 10 8H8ZM8 8H6C6 9.10457 6.89543 10 8 10V8ZM8 8V6C6.89543 6 6 6.89543 6 8H8ZM8 8H10C10 6.89543 9.10457 6 8 6V8Z" fill="#121212" mask="url(#path-1-inside-1)"/>
</svg>
