<svg width="28" height="28" viewBox="0 0 28 28" fill="none" xmlns="http://www.w3.org/2000/svg">
<mask id="path-1-inside-1" fill="white">
<path d="M23.3933 15.9061L15.9135 23.3879C15.7197 23.582 15.4896 23.7359 15.2363 23.8409C14.983 23.9459 14.7115 24 14.4373 24C14.1631 24 13.8916 23.9459 13.6383 23.8409C13.3851 23.7359 13.155 23.582 12.9612 23.3879L4 14.4348V4H14.4321L23.3933 12.9635C23.7819 13.3545 24 13.8835 24 14.4348C24 14.9862 23.7819 15.5151 23.3933 15.9061Z"/>
<path d="M10 9C10 9.55228 9.55228 10 9 10C8.44772 10 8 9.55228 8 9C8 8.44772 8.44772 8 9 8C9.55228 8 10 8.44772 10 9Z"/>
</mask>
<path d="M23.3933 15.9061L24.1005 16.6132L24.1026 16.6111L23.3933 15.9061ZM15.9135 23.3879L15.2063 22.6809L15.2059 22.6813L15.9135 23.3879ZM12.9612 23.3879L13.6688 22.6813L13.668 22.6805L12.9612 23.3879ZM4 14.4348H3C3 14.7002 3.10548 14.9547 3.29321 15.1423L4 14.4348ZM4 4V3C3.44772 3 3 3.44772 3 4H4ZM14.4321 4L15.1393 3.29299C14.9518 3.10539 14.6974 3 14.4321 3V4ZM23.3933 12.9635L24.1026 12.2586L24.1005 12.2565L23.3933 12.9635ZM22.6861 15.1991L15.2063 22.6809L16.6207 24.0949L24.1005 16.6132L22.6861 15.1991ZM15.2059 22.6813C15.105 22.7824 14.9851 22.8625 14.8533 22.9172L15.6193 24.7647C15.994 24.6093 16.3344 24.3816 16.6211 24.0945L15.2059 22.6813ZM14.8533 22.9172C14.7214 22.9719 14.5801 23 14.4373 23V25C14.843 25 15.2446 24.92 15.6193 24.7647L14.8533 22.9172ZM14.4373 23C14.2946 23 14.1532 22.9719 14.0214 22.9172L13.2553 24.7647C13.63 24.92 14.0317 25 14.4373 25V23ZM14.0214 22.9172C13.8895 22.8625 13.7697 22.7824 13.6688 22.6813L12.2536 24.0945C12.5402 24.3816 12.8806 24.6093 13.2553 24.7647L14.0214 22.9172ZM13.668 22.6805L4.70679 13.7274L3.29321 15.1423L12.2544 24.0953L13.668 22.6805ZM5 14.4348V4H3V14.4348H5ZM4 5H14.4321V3H4V5ZM13.7249 4.70701L22.6861 13.6705L24.1005 12.2565L15.1393 3.29299L13.7249 4.70701ZM22.684 13.6684C22.8864 13.8721 23 14.1476 23 14.4348H25C25 13.6194 24.6774 12.837 24.1026 12.2586L22.684 13.6684ZM23 14.4348C23 14.7221 22.8864 14.9976 22.684 15.2012L24.1026 16.6111C24.6774 16.0326 25 15.2503 25 14.4348H23ZM9 9V11C10.1046 11 11 10.1046 11 9H9ZM9 9H7C7 10.1046 7.89543 11 9 11V9ZM9 9V7C7.89543 7 7 7.89543 7 9H9ZM9 9H11C11 7.89543 10.1046 7 9 7V9Z" fill="#121212" mask="url(#path-1-inside-1)"/>
</svg>
