<svg width="28" height="28" viewBox="0 0 28 28" fill="none" xmlns="http://www.w3.org/2000/svg">
<path d="M3.63721 20.3798C3.36106 20.3798 3.13721 20.6036 3.13721 20.8798C3.13721 21.1559 3.36106 21.3798 3.63721 21.3798V20.3798ZM7.14202 21.3798C7.41816 21.3798 7.64202 21.1559 7.64202 20.8798C7.64202 20.6036 7.41816 20.3798 7.14202 20.3798V21.3798ZM21.1179 20.3798C20.8418 20.3798 20.6179 20.6037 20.6179 20.8798C20.6179 21.156 20.8418 21.3798 21.1179 21.3798V20.3798ZM24.3631 13.4808H24.8631C24.8631 13.2046 24.6393 12.9808 24.3631 12.9808V13.4808ZM14.6708 13.4808H14.1708C14.1708 13.7569 14.3947 13.9808 14.6708 13.9808V13.4808ZM14.6708 5H15.1708C15.1708 4.72386 14.9469 4.5 14.6708 4.5V5ZM6.2333 4.5C5.95716 4.5 5.7333 4.72386 5.7333 5C5.7333 5.27614 5.95716 5.5 6.2333 5.5V4.5ZM19.2141 6.21156L19.6229 5.92369C19.5292 5.79069 19.3767 5.71156 19.2141 5.71156V6.21156ZM5.93033 7.83171C5.65419 7.83171 5.43033 8.05557 5.43033 8.33171C5.43033 8.60785 5.65419 8.83171 5.93033 8.83171V7.83171ZM11.339 8.83171C11.6151 8.83171 11.839 8.60785 11.839 8.33171C11.839 8.05557 11.6151 7.83171 11.339 7.83171V8.83171ZM4.58905 11.25C4.31291 11.25 4.08905 11.4739 4.08905 11.75C4.08905 12.0262 4.31291 12.25 4.58905 12.25V11.25ZM9.9977 12.25C10.2738 12.25 10.4977 12.0262 10.4977 11.75C10.4977 11.4739 10.2738 11.25 9.9977 11.25V12.25ZM3.81018 14.6683C3.53404 14.6683 3.31018 14.8921 3.31018 15.1683C3.31018 15.4444 3.53404 15.6683 3.81018 15.6683V14.6683ZM9.21884 15.6683C9.49498 15.6683 9.71884 15.4444 9.71884 15.1683C9.71884 14.8921 9.49498 14.6683 9.21884 14.6683V15.6683ZM12.0747 21.3798H16.2286V20.3798H12.0747V21.3798ZM3.63721 21.3798H7.14202V20.3798H3.63721V21.3798ZM21.1179 21.3798H21.767V20.3798H21.1179V21.3798ZM21.767 21.3798C23.471 21.3798 24.8631 19.9877 24.8631 18.2837H23.8631C23.8631 19.4354 22.9187 20.3798 21.767 20.3798V21.3798ZM24.8631 18.2837V13.4808H23.8631V18.2837H24.8631ZM24.3631 12.9808H14.6708V13.9808H24.3631V12.9808ZM15.1708 13.4808V5H14.1708V13.4808H15.1708ZM14.6708 4.5H6.2333V5.5H14.6708V4.5ZM14.2381 6.71156H19.2141V5.71156H14.2381V6.71156ZM18.8053 6.49943L23.9543 13.8119L24.7719 13.2362L19.6229 5.92369L18.8053 6.49943ZM11.5746 20.5336C11.5746 21.6046 10.711 22.5 9.60824 22.5V23.5C11.2747 23.5 12.5746 22.1454 12.5746 20.5336H11.5746ZM9.60824 22.5C8.49976 22.5 7.64189 21.6421 7.64189 20.5336H6.64189C6.64189 22.1944 7.94748 23.5 9.60824 23.5V22.5ZM7.64189 20.5336C7.64189 19.4627 8.50546 18.5673 9.60824 18.5673V17.5673C7.94178 17.5673 6.64189 18.9219 6.64189 20.5336H7.64189ZM9.60824 18.5673C10.711 18.5673 11.5746 19.4627 11.5746 20.5336H12.5746C12.5746 18.9219 11.2747 17.5673 9.60824 17.5673V18.5673ZM20.6179 20.5336C20.6179 21.6046 19.7544 22.5 18.6516 22.5V23.5C20.318 23.5 21.6179 22.1454 21.6179 20.5336H20.6179ZM18.6516 22.5C17.5806 22.5 16.6852 21.6364 16.6852 20.5336H15.6852C15.6852 22.2001 17.0398 23.5 18.6516 23.5V22.5ZM16.6852 20.5336C16.6852 19.4627 17.5488 18.5673 18.6516 18.5673V17.5673C16.9851 17.5673 15.6852 18.9219 15.6852 20.5336H16.6852ZM18.6516 18.5673C19.7544 18.5673 20.6179 19.4627 20.6179 20.5336H21.6179C21.6179 18.9219 20.318 17.5673 18.6516 17.5673V18.5673ZM5.93033 8.83171H11.339V7.83171H5.93033V8.83171ZM4.58905 12.25H9.9977V11.25H4.58905V12.25ZM3.81018 15.6683H9.21884V14.6683H3.81018V15.6683Z" fill="#121212"/>
</svg>
